<?xml version="1.0" standalone="no"?><!DOCTYPE svg PUBLIC "-//W3C//DTD SVG 1.1//EN" "http://www.w3.org/Graphics/SVG/1.1/DTD/svg11.dtd"><svg xmlns:xlink="http://www.w3.org/1999/xlink" version="1.1" class="highcharts-root" style="font-family:&quot;Lucida Grande&quot;, &quot;Lucida Sans Unicode&quot;, Arial, Helvetica, sans-serif;font-size:12px;" xmlns="http://www.w3.org/2000/svg" width="600" height="400" viewBox="0 0 600 400"><desc>Created with Highcharts 8.1.2</desc><defs><clipPath id="highcharts-xhcjs4n-436-"><rect x="0" y="0" width="528" height="261" fill="none"></rect></clipPath><clipPath id="highcharts-xhcjs4n-451-"><rect x="62" y="47" width="528" height="261" fill="none"></rect></clipPath><clipPath id="highcharts-xhcjs4n-452-"><rect x="62" y="47" width="528" height="261" fill="none"></rect></clipPath></defs><rect fill="#ffffff" class="highcharts-background" x="0" y="0" width="600" height="400" rx="0" ry="0"></rect><rect fill="none" class="highcharts-plot-background" x="62" y="47" width="528" height="261"></rect><g class="highcharts-pane-group" data-z-index="0"></g><g class="highcharts-grid highcharts-xaxis-grid" data-z-index="1"><path fill="none" stroke="#e6e6e6" stroke-width="1" data-z-index="1" class="highcharts-grid-line" d="M 61.5 47 L 61.5 308" opacity="1"></path><path fill="none" stroke="#e6e6e6" stroke-width="1" data-z-index="1" class="highcharts-grid-line" d="M 193.5 47 L 193.5 308" opacity="1"></path><path fill="none" stroke="#e6e6e6" stroke-width="1" data-z-index="1" class="highcharts-grid-line" d="M 325.5 47 L 325.5 308" opacity="1"></path><path fill="none" stroke="#e6e6e6" stroke-width="1" data-z-index="1" class="highcharts-grid-line" d="M 457.5 47 L 457.5 308" opacity="1"></path><path fill="none" stroke="#e6e6e6" stroke-width="1" data-z-index="1" class="highcharts-grid-line" d="M 590.5 47 L 590.5 308" opacity="1"></path></g><g class="highcharts-grid highcharts-yaxis-grid" data-z-index="1"><path fill="none" stroke="#e6e6e6" stroke-width="1" data-z-index="1" class="highcharts-grid-line" d="M 62 308.5 L 590 308.5" opacity="1"></path><path fill="none" stroke="#e6e6e6" stroke-width="1" data-z-index="1" class="highcharts-grid-line" d="M 62 243.5 L 590 243.5" opacity="1"></path><path fill="none" stroke="#e6e6e6" stroke-width="1" data-z-index="1" class="highcharts-grid-line" d="M 62 178.5 L 590 178.5" opacity="1"></path><path fill="none" stroke="#e6e6e6" stroke-width="1" data-z-index="1" class="highcharts-grid-line" d="M 62 112.5 L 590 112.5" opacity="1"></path><path fill="none" stroke="#e6e6e6" stroke-width="1" data-z-index="1" class="highcharts-grid-line" d="M 62 46.5 L 590 46.5" opacity="1"></path></g><rect fill="none" class="highcharts-plot-border" data-z-index="1" x="62" y="47" width="528" height="261"></rect><g class="highcharts-axis highcharts-xaxis" data-z-index="2"><path fill="none" class="highcharts-tick" stroke="#ccd6eb" stroke-width="1" d="M 61.5 308 L 61.5 318" opacity="1"></path><path fill="none" class="highcharts-tick" stroke="#ccd6eb" stroke-width="1" d="M 193.5 308 L 193.5 318" opacity="1"></path><path fill="none" class="highcharts-tick" stroke="#ccd6eb" stroke-width="1" d="M 325.5 308 L 325.5 318" opacity="1"></path><path fill="none" class="highcharts-tick" stroke="#ccd6eb" stroke-width="1" d="M 457.5 308 L 457.5 318" opacity="1"></path><path fill="none" class="highcharts-tick" stroke="#ccd6eb" stroke-width="1" d="M 590.5 308 L 590.5 318" opacity="1"></path><text x="326" data-z-index="7" text-anchor="middle" transform="translate(0,0)" class="highcharts-axis-title" style="color:#666666;fill:#666666;" y="346"><tspan>Afsætning</tspan></text><path fill="none" class="highcharts-axis-line" stroke="#ccd6eb" stroke-width="1" data-z-index="7" d="M 62 308.5 L 590 308.5"></path></g><g class="highcharts-axis highcharts-yaxis" data-z-index="2"><path fill="none" class="highcharts-axis-line" data-z-index="7" d="M 62 47 L 62 308"></path></g><g class="highcharts-series-group" data-z-index="3"><g class="highcharts-series highcharts-series-0 highcharts-line-series" data-z-index="0.1" opacity="1" transform="translate(62,47) scale(1 1)" clip-path="url(#highcharts-xhcjs4n-436-)"><path fill="none" d="M 0 130.5 L 264 261" class="highcharts-graph" data-z-index="1" stroke="blue" stroke-width="2" stroke-linejoin="round" stroke-linecap="round"></path></g><g class="highcharts-markers highcharts-series-0 highcharts-line-series" data-z-index="0.1" opacity="1" transform="translate(62,47) scale(1 1)" clip-path="none"></g><g class="highcharts-series highcharts-series-1 highcharts-line-series" data-z-index="0.1" opacity="1" transform="translate(62,47) scale(1 1)" clip-path="url(#highcharts-xhcjs4n-436-)"><path fill="none" d="M 0 0 L 264 261" class="highcharts-graph" data-z-index="1" stroke="red" stroke-width="2" stroke-linejoin="round" stroke-linecap="round"></path></g><g class="highcharts-markers highcharts-series-1 highcharts-line-series" data-z-index="0.1" opacity="1" transform="translate(62,47) scale(1 1)" clip-path="none"></g><g class="highcharts-series highcharts-series-2 highcharts-line-series" data-z-index="0.1" opacity="1" transform="translate(62,47) scale(1 1)" clip-path="url(#highcharts-xhcjs4n-436-)"><path fill="none" d="M 0 0 L 132 130.5 L 528 261" class="highcharts-graph" data-z-index="1" stroke="orange" stroke-width="4" stroke-linejoin="round" stroke-linecap="round"></path></g><g class="highcharts-markers highcharts-series-2 highcharts-line-series" data-z-index="0.1" opacity="1" transform="translate(62,47) scale(1 1)" clip-path="none"></g><g class="highcharts-series highcharts-series-3 highcharts-line-series" data-z-index="0.1" opacity="1" transform="translate(62,47) scale(1 1)" clip-path="url(#highcharts-xhcjs4n-436-)"><path fill="none" d="M 0 130.5 L 132 130.5 L 132 261" class="highcharts-graph" data-z-index="1" stroke="green" stroke-width="2" stroke-dasharray="2,2"></path></g><g class="highcharts-markers highcharts-series-3 highcharts-line-series" data-z-index="0.1" opacity="1" transform="translate(62,47) scale(1 1)" clip-path="none"></g></g><text x="300" text-anchor="middle" class="highcharts-title" data-z-index="4" style="color:#333333;font-size:18px;fill:#333333;" y="24"><tspan>Vandret addition</tspan></text><text x="300" text-anchor="middle" class="highcharts-subtitle" data-z-index="4" style="color:#666666;fill:#666666;" y="46"></text><text x="10" text-anchor="start" class="highcharts-caption" data-z-index="4" style="color:#666666;fill:#666666;" y="397"></text><g class="highcharts-annotation" data-z-index="6" visibility="visible" clip-path="url(#highcharts-xhcjs4n-452-)" style="cursor:move;"><g class="highcharts-annotation-shapes" clip-path="url(#highcharts-xhcjs4n-451-)"></g><g class="highcharts-annotation-labels" transform="translate(0,0)"><g class="highcharts-label highcharts-annotation-label" transform="translate(105,96)"><path fill="orange" class="highcharts-label-box highcharts-annotation-label-box" d="M 3.5 0.5 L 44.5 0.5 C 47.5 0.5 47.5 0.5 47.5 3.5 L 47.5 10.5 C 47.5 13.5 47.5 13.5 44.5 13.5 L 28.5 13.5 L 22.5 19.5 L 16.5 13.5 L 3.5 13.5 C 0.5 13.5 0.5 13.5 0.5 10.5 L 0.5 3.5 C 0.5 0.5 0.5 0.5 3.5 0.5" stroke="orange" stroke-width="1"></path><text x="2" data-z-index="1" y="10" style="color:white;font-size:0.6em;font-weight:normal;fill:white;cursor:move;"><tspan>Y2=-2X2+4</tspan></text></g><g class="highcharts-label highcharts-annotation-label" transform="translate(194,172)"><path fill="orange" class="highcharts-label-box highcharts-annotation-label-box" d="M 3.5 0.5 L 128.5 0.5 C 131.5 0.5 131.5 0.5 131.5 3.5 L 131.5 10.5 C 131.5 13.5 131.5 13.5 128.5 13.5 L 71.5 13.5 L 65.5 19.5 L 59.5 13.5 L 3.5 13.5 C 0.5 13.5 0.5 13.5 0.5 10.5 L 0.5 3.5 C 0.5 0.5 0.5 0.5 3.5 0.5" stroke="orange" stroke-width="1"></path><text x="2" data-z-index="1" y="10" style="color:white;font-size:0.6em;font-weight:normal;fill:white;cursor:move;"><tspan>Yvandret=-0,6667Xvandret+2,6667</tspan></text></g><g class="highcharts-label highcharts-annotation-label" transform="translate(62,63)"><path fill="red" class="highcharts-label-box highcharts-annotation-label-box" d="M 3.5 0.5 L 44.5 0.5 C 47.5 0.5 47.5 0.5 47.5 3.5 L 47.5 10.5 C 47.5 13.5 47.5 13.5 44.5 13.5 L 3.5 13.5 C 0.5 13.5 0.5 13.5 0.5 10.5 L 0.5 6.5 L -0.5 -16 L 0.5 6.5 L 0.5 3.5 C 0.5 0.5 0.5 0.5 3.5 0.5" stroke="red" stroke-width="1"></path><text x="2" data-z-index="1" y="10" style="color:white;font-size:0.6em;font-weight:normal;fill:white;cursor:move;"><tspan>Y2=-2X2+4</tspan></text></g><g class="highcharts-label highcharts-annotation-label" transform="translate(62,162)"><path fill="blue" class="highcharts-label-box highcharts-annotation-label-box" d="M 3.5 0.5 L 44.5 0.5 C 47.5 0.5 47.5 0.5 47.5 3.5 L 47.5 10.5 C 47.5 13.5 47.5 13.5 44.5 13.5 L 3.5 13.5 C 0.5 13.5 0.5 13.5 0.5 10.5 L 0.5 6.5 L -0.5 15.5 L 0.5 6.5 L 0.5 3.5 C 0.5 0.5 0.5 0.5 3.5 0.5" stroke="blue" stroke-width="1"></path><text x="2" data-z-index="1" y="10" style="color:white;font-size:0.6em;font-weight:normal;fill:white;cursor:move;"><tspan>Y1=-1X1+2</tspan></text></g></g></g><g class="highcharts-legend" data-z-index="7" transform="translate(153,360)"><rect fill="none" class="highcharts-legend-box" rx="0" ry="0" x="0" y="0" width="294" height="25" visibility="visible"></rect><g data-z-index="1"><g><g class="highcharts-legend-item highcharts-line-series highcharts-color-undefined highcharts-series-0" data-z-index="1" transform="translate(8,3)"><path fill="none" d="M 0 11 L 16 11" class="highcharts-graph" stroke="blue" stroke-width="2"></path><text x="21" style="color:#333333;cursor:pointer;font-size:12px;font-weight:bold;fill:#333333;" text-anchor="start" data-z-index="2" y="15"><tspan>Y1</tspan></text></g><g class="highcharts-legend-item highcharts-line-series highcharts-color-undefined highcharts-series-1" data-z-index="1" transform="translate(65.15625,3)"><path fill="none" d="M 0 11 L 16 11" class="highcharts-graph" stroke="red" stroke-width="2"></path><text x="21" y="15" style="color:#333333;cursor:pointer;font-size:12px;font-weight:bold;fill:#333333;" text-anchor="start" data-z-index="2"><tspan>Y2</tspan></text></g><g class="highcharts-legend-item highcharts-line-series highcharts-color-undefined highcharts-series-2" data-z-index="1" transform="translate(122.3125,3)"><path fill="none" d="M 0 11 L 16 11" class="highcharts-graph" stroke="orange" stroke-width="4"></path><text x="21" y="15" style="color:#333333;cursor:pointer;font-size:12px;font-weight:bold;fill:#333333;" text-anchor="start" data-z-index="2"><tspan>Y2</tspan></text></g><g class="highcharts-legend-item highcharts-line-series highcharts-color-undefined highcharts-series-3" data-z-index="1" transform="translate(179.46875,3)"><path fill="none" d="M 0 11 L 16 11" class="highcharts-graph" stroke-dasharray="2,2" stroke="green" stroke-width="2"></path><text x="21" y="15" style="color:#333333;cursor:pointer;font-size:12px;font-weight:bold;fill:#333333;" text-anchor="start" data-z-index="2"><tspan>Knæk vandret</tspan></text></g></g></g></g><g class="highcharts-axis-labels highcharts-xaxis-labels" data-z-index="7"><text x="62" style="color:#666666;cursor:default;font-size:11px;fill:#666666;" text-anchor="middle" transform="translate(0,0)" y="327" opacity="1"><tspan>0 stk.</tspan></text><text x="194" style="color:#666666;cursor:default;font-size:11px;fill:#666666;" text-anchor="middle" transform="translate(0,0)" y="327" opacity="1"><tspan>1 stk.</tspan></text><text x="326" style="color:#666666;cursor:default;font-size:11px;fill:#666666;" text-anchor="middle" transform="translate(0,0)" y="327" opacity="1"><tspan>2 stk.</tspan></text><text x="458" style="color:#666666;cursor:default;font-size:11px;fill:#666666;" text-anchor="middle" transform="translate(0,0)" y="327" opacity="1"><tspan>3 stk.</tspan></text><text x="574.9609375" style="color:#666666;cursor:default;font-size:11px;fill:#666666;" text-anchor="middle" transform="translate(0,0)" y="327" opacity="1"><tspan>4 stk.</tspan></text></g><g class="highcharts-axis-labels highcharts-yaxis-labels" data-z-index="7"><text x="47" style="color:#666666;cursor:default;font-size:11px;fill:#666666;" text-anchor="end" transform="translate(0,0)" y="313" opacity="1"><tspan>0 DKK.</tspan></text><text x="47" style="color:#666666;cursor:default;font-size:11px;fill:#666666;" text-anchor="end" transform="translate(0,0)" y="247" opacity="1"><tspan>1 DKK.</tspan></text><text x="47" style="color:#666666;cursor:default;font-size:11px;fill:#666666;" text-anchor="end" transform="translate(0,0)" y="182" opacity="1"><tspan>2 DKK.</tspan></text><text x="47" style="color:#666666;cursor:default;font-size:11px;fill:#666666;" text-anchor="end" transform="translate(0,0)" y="117" opacity="1"><tspan>3 DKK.</tspan></text><text x="47" style="color:#666666;cursor:default;font-size:11px;fill:#666666;" text-anchor="end" transform="translate(0,0)" y="52" opacity="1"><tspan>4 DKK.</tspan></text></g><g class="highcharts-control-points" data-z-index="99" clip-path="url(#highcharts-xhcjs4n-451-)"></g></svg>