<?xml version="1.0" standalone="no"?><!DOCTYPE svg PUBLIC "-//W3C//DTD SVG 1.1//EN" "http://www.w3.org/Graphics/SVG/1.1/DTD/svg11.dtd"><svg xmlns:xlink="http://www.w3.org/1999/xlink" version="1.1" class="highcharts-root" style="font-family:&quot;Lucida Grande&quot;, &quot;Lucida Sans Unicode&quot;, Arial, Helvetica, sans-serif;font-size:12px;" xmlns="http://www.w3.org/2000/svg" width="600" height="400" viewBox="0 0 600 400"><desc>Created with Highcharts 8.1.2</desc><defs><clipPath id="highcharts-uhmgfxm-503-"><rect x="0" y="0" width="515" height="261" fill="none"></rect></clipPath><clipPath id="highcharts-uhmgfxm-518-"><rect x="75" y="47" width="515" height="261" fill="none"></rect></clipPath><clipPath id="highcharts-uhmgfxm-519-"><rect x="75" y="47" width="515" height="261" fill="none"></rect></clipPath></defs><rect fill="#ffffff" class="highcharts-background" x="0" y="0" width="600" height="400" rx="0" ry="0"></rect><rect fill="none" class="highcharts-plot-background" x="75" y="47" width="515" height="261"></rect><g class="highcharts-pane-group" data-z-index="0"></g><g class="highcharts-grid highcharts-xaxis-grid" data-z-index="1"><path fill="none" stroke="#e6e6e6" stroke-width="1" data-z-index="1" class="highcharts-grid-line" d="M 74.5 47 L 74.5 308" opacity="1"></path><path fill="none" stroke="#e6e6e6" stroke-width="1" data-z-index="1" class="highcharts-grid-line" d="M 160.5 47 L 160.5 308" opacity="1"></path><path fill="none" stroke="#e6e6e6" stroke-width="1" data-z-index="1" class="highcharts-grid-line" d="M 246.5 47 L 246.5 308" opacity="1"></path><path fill="none" stroke="#e6e6e6" stroke-width="1" data-z-index="1" class="highcharts-grid-line" d="M 332.5 47 L 332.5 308" opacity="1"></path><path fill="none" stroke="#e6e6e6" stroke-width="1" data-z-index="1" class="highcharts-grid-line" d="M 417.5 47 L 417.5 308" opacity="1"></path><path fill="none" stroke="#e6e6e6" stroke-width="1" data-z-index="1" class="highcharts-grid-line" d="M 503.5 47 L 503.5 308" opacity="1"></path><path fill="none" stroke="#e6e6e6" stroke-width="1" data-z-index="1" class="highcharts-grid-line" d="M 590.5 47 L 590.5 308" opacity="1"></path></g><g class="highcharts-grid highcharts-yaxis-grid" data-z-index="1"><path fill="none" stroke="#e6e6e6" stroke-width="1" data-z-index="1" class="highcharts-grid-line" d="M 75 308.5 L 590 308.5" opacity="1"></path><path fill="none" stroke="#e6e6e6" stroke-width="1" data-z-index="1" class="highcharts-grid-line" d="M 75 221.5 L 590 221.5" opacity="1"></path><path fill="none" stroke="#e6e6e6" stroke-width="1" data-z-index="1" class="highcharts-grid-line" d="M 75 134.5 L 590 134.5" opacity="1"></path><path fill="none" stroke="#e6e6e6" stroke-width="1" data-z-index="1" class="highcharts-grid-line" d="M 75 46.5 L 590 46.5" opacity="1"></path></g><rect fill="none" class="highcharts-plot-border" data-z-index="1" x="75" y="47" width="515" height="261"></rect><g class="highcharts-axis highcharts-xaxis" data-z-index="2"><path fill="none" class="highcharts-tick" stroke="#ccd6eb" stroke-width="1" d="M 74.5 308 L 74.5 318" opacity="1"></path><path fill="none" class="highcharts-tick" stroke="#ccd6eb" stroke-width="1" d="M 160.5 308 L 160.5 318" opacity="1"></path><path fill="none" class="highcharts-tick" stroke="#ccd6eb" stroke-width="1" d="M 246.5 308 L 246.5 318" opacity="1"></path><path fill="none" class="highcharts-tick" stroke="#ccd6eb" stroke-width="1" d="M 332.5 308 L 332.5 318" opacity="1"></path><path fill="none" class="highcharts-tick" stroke="#ccd6eb" stroke-width="1" d="M 417.5 308 L 417.5 318" opacity="1"></path><path fill="none" class="highcharts-tick" stroke="#ccd6eb" stroke-width="1" d="M 503.5 308 L 503.5 318" opacity="1"></path><path fill="none" class="highcharts-tick" stroke="#ccd6eb" stroke-width="1" d="M 590.5 308 L 590.5 318" opacity="1"></path><text x="332.5" data-z-index="7" text-anchor="middle" transform="translate(0,0)" class="highcharts-axis-title" style="color:#666666;fill:#666666;" y="346"><tspan>Afsætning</tspan></text><path fill="none" class="highcharts-axis-line" stroke="#ccd6eb" stroke-width="1" data-z-index="7" d="M 75 308.5 L 590 308.5"></path></g><g class="highcharts-axis highcharts-yaxis" data-z-index="2"><path fill="none" class="highcharts-axis-line" data-z-index="7" d="M 75 47 L 75 308"></path></g><g class="highcharts-series-group" data-z-index="3"><g class="highcharts-series highcharts-series-0 highcharts-line-series" data-z-index="0.1" opacity="1" transform="translate(75,47) scale(1 1)" clip-path="url(#highcharts-uhmgfxm-503-)"><path fill="none" d="M 0 87 L 171.66666666667 261" class="highcharts-graph" data-z-index="1" stroke="blue" stroke-width="2" stroke-linejoin="round" stroke-linecap="round"></path></g><g class="highcharts-markers highcharts-series-0 highcharts-line-series" data-z-index="0.1" opacity="1" transform="translate(75,47) scale(1 1)" clip-path="none"></g><g class="highcharts-series highcharts-series-1 highcharts-line-series" data-z-index="0.1" opacity="1" transform="translate(75,47) scale(1 1)" clip-path="url(#highcharts-uhmgfxm-503-)"><path fill="none" d="M 0 174 L 343.33333333333 261" class="highcharts-graph" data-z-index="1" stroke="red" stroke-width="2" stroke-linejoin="round" stroke-linecap="round"></path></g><g class="highcharts-markers highcharts-series-1 highcharts-line-series" data-z-index="0.1" opacity="1" transform="translate(75,47) scale(1 1)" clip-path="none"></g><g class="highcharts-series highcharts-series-2 highcharts-line-series" data-z-index="0.1" opacity="1" transform="translate(75,47) scale(1 1)" clip-path="url(#highcharts-uhmgfxm-503-)"><path fill="none" d="M 0 0 L 171.66666666667 217.5 L 343.33333333333 261" class="highcharts-graph" data-z-index="1" stroke="orange" stroke-width="4" stroke-linejoin="round" stroke-linecap="round"></path></g><g class="highcharts-markers highcharts-series-2 highcharts-line-series" data-z-index="0.1" opacity="1" transform="translate(75,47) scale(1 1)" clip-path="none"></g><g class="highcharts-series highcharts-series-3 highcharts-line-series" data-z-index="0.1" opacity="1" transform="translate(75,47) scale(1 1)" clip-path="url(#highcharts-uhmgfxm-503-)"><path fill="none" d="M 0 217.5 L 171.66666666667 217.5 L 171.66666666667 261" class="highcharts-graph" data-z-index="1" stroke="pink" stroke-width="2" stroke-dasharray="2,2"></path></g><g class="highcharts-markers highcharts-series-3 highcharts-line-series" data-z-index="0.1" opacity="1" transform="translate(75,47) scale(1 1)" clip-path="none"></g></g><text x="300" text-anchor="middle" class="highcharts-title" data-z-index="4" style="color:#333333;font-size:18px;fill:#333333;" y="24"><tspan>Lodret addition</tspan></text><text x="300" text-anchor="middle" class="highcharts-subtitle" data-z-index="4" style="color:#666666;fill:#666666;" y="46"></text><text x="10" text-anchor="start" class="highcharts-caption" data-z-index="4" style="color:#666666;fill:#666666;" y="397"></text><g class="highcharts-annotation" data-z-index="6" visibility="visible" clip-path="url(#highcharts-uhmgfxm-519-)" style="cursor:move;"><g class="highcharts-annotation-shapes" clip-path="url(#highcharts-uhmgfxm-518-)"></g><g class="highcharts-annotation-labels" transform="translate(0,0)"><g class="highcharts-label highcharts-annotation-label" transform="translate(75,205)"><path fill="red" class="highcharts-label-box highcharts-annotation-label-box" d="M 3.5 0.5 L 60.5 0.5 C 63.5 0.5 63.5 0.5 63.5 3.5 L 63.5 10.5 C 63.5 13.5 63.5 13.5 60.5 13.5 L 3.5 13.5 C 0.5 13.5 0.5 13.5 0.5 10.5 L 0.5 6.5 L -0.5 16 L 0.5 6.5 L 0.5 3.5 C 0.5 0.5 0.5 0.5 3.5 0.5" stroke="red" stroke-width="1"></path><text x="2" data-z-index="1" y="10" style="color:white;font-size:0.6em;font-weight:normal;fill:white;cursor:move;"><tspan>Y2=-0.5X2+200</tspan></text></g><g class="highcharts-label highcharts-annotation-label" transform="translate(75,118)"><path fill="blue" class="highcharts-label-box highcharts-annotation-label-box" d="M 3.5 0.5 L 53.5 0.5 C 56.5 0.5 56.5 0.5 56.5 3.5 L 56.5 10.5 C 56.5 13.5 56.5 13.5 53.5 13.5 L 3.5 13.5 C 0.5 13.5 0.5 13.5 0.5 10.5 L 0.5 6.5 L -0.5 16 L 0.5 6.5 L 0.5 3.5 C 0.5 0.5 0.5 0.5 3.5 0.5" stroke="blue" stroke-width="1"></path><text x="2" data-z-index="1" y="10" style="color:white;font-size:0.6em;font-weight:normal;fill:white;cursor:move;"><tspan>Y1=-2X1+400</tspan></text></g><g class="highcharts-label highcharts-annotation-label" transform="translate(306,266)"><path fill="orange" class="highcharts-label-box highcharts-annotation-label-box" d="M 3.5 0.5 L 51.5 0.5 C 54.5 0.5 54.5 0.5 54.5 3.5 L 54.5 10.5 C 54.5 13.5 54.5 13.5 51.5 13.5 L 32.5 13.5 L 26.5 19.5 L 20.5 13.5 L 3.5 13.5 C 0.5 13.5 0.5 13.5 0.5 10.5 L 0.5 3.5 C 0.5 0.5 0.5 0.5 3.5 0.5" stroke="orange" stroke-width="1"></path><text x="2" data-z-index="1" y="10" style="color:white;font-size:0.6em;font-weight:normal;fill:white;cursor:move;">Y=-0.5X+200</text></g><g class="highcharts-label highcharts-annotation-label" transform="translate(75,63)"><path fill="orange" class="highcharts-label-box highcharts-annotation-label-box" d="M 3.5 0.5 L 92.5 0.5 C 95.5 0.5 95.5 0.5 95.5 3.5 L 95.5 10.5 C 95.5 13.5 95.5 13.5 92.5 13.5 L 3.5 13.5 C 0.5 13.5 0.5 13.5 0.5 10.5 L 0.5 6.5 L -0.5 -16 L 0.5 6.5 L 0.5 3.5 C 0.5 0.5 0.5 0.5 3.5 0.5" stroke="orange" stroke-width="1"></path><text x="2" data-z-index="1" y="10" style="color:white;font-size:0.6em;font-weight:normal;fill:white;cursor:move;"><tspan>Ylodret=-2.5Xlodret+600</tspan></text></g></g></g><g class="highcharts-legend" data-z-index="7" transform="translate(138,360)"><rect fill="none" class="highcharts-legend-box" rx="0" ry="0" x="0" y="0" width="323" height="25" visibility="visible"></rect><g data-z-index="1"><g><g class="highcharts-legend-item highcharts-line-series highcharts-color-undefined highcharts-series-0" data-z-index="1" transform="translate(8,3)"><path fill="none" d="M 0 11 L 16 11" class="highcharts-graph" stroke="blue" stroke-width="2"></path><text x="21" style="color:#333333;cursor:pointer;font-size:12px;font-weight:bold;fill:#333333;" text-anchor="start" data-z-index="2" y="15"><tspan>Y1</tspan></text></g><g class="highcharts-legend-item highcharts-line-series highcharts-color-undefined highcharts-series-1" data-z-index="1" transform="translate(65.15625,3)"><path fill="none" d="M 0 11 L 16 11" class="highcharts-graph" stroke="red" stroke-width="2"></path><text x="21" y="15" style="color:#333333;cursor:pointer;font-size:12px;font-weight:bold;fill:#333333;" text-anchor="start" data-z-index="2"><tspan>Y2</tspan></text></g><g class="highcharts-legend-item highcharts-line-series highcharts-color-undefined highcharts-series-2" data-z-index="1" transform="translate(122.3125,3)"><path fill="none" d="M 0 11 L 16 11" class="highcharts-graph" stroke="orange" stroke-width="4"></path><text x="21" y="15" style="color:#333333;cursor:pointer;font-size:12px;font-weight:bold;fill:#333333;" text-anchor="start" data-z-index="2"><tspan>Y-Lodret</tspan></text></g><g class="highcharts-legend-item highcharts-line-series highcharts-color-undefined highcharts-series-3" data-z-index="1" transform="translate(219.171875,3)"><path fill="none" d="M 0 11 L 16 11" class="highcharts-graph" stroke-dasharray="2,2" stroke="pink" stroke-width="2"></path><text x="21" y="15" style="color:#333333;cursor:pointer;font-size:12px;font-weight:bold;fill:#333333;" text-anchor="start" data-z-index="2"><tspan>Knæk lodret</tspan></text></g></g></g></g><g class="highcharts-axis-labels highcharts-xaxis-labels" data-z-index="7"><text x="75" style="color:#666666;cursor:default;font-size:11px;fill:#666666;" text-anchor="middle" transform="translate(0,0)" y="327" opacity="1"><tspan>0 stk.</tspan></text><text x="160.83333333333" style="color:#666666;cursor:default;font-size:11px;fill:#666666;" text-anchor="middle" transform="translate(0,0)" y="327" opacity="1"><tspan>100 stk.</tspan></text><text x="246.66666666667" style="color:#666666;cursor:default;font-size:11px;fill:#666666;" text-anchor="middle" transform="translate(0,0)" y="327" opacity="1"><tspan>200 stk.</tspan></text><text x="332.5" style="color:#666666;cursor:default;font-size:11px;fill:#666666;" text-anchor="middle" transform="translate(0,0)" y="327" opacity="1"><tspan>300 stk.</tspan></text><text x="418.33333333333" style="color:#666666;cursor:default;font-size:11px;fill:#666666;" text-anchor="middle" transform="translate(0,0)" y="327" opacity="1"><tspan>400 stk.</tspan></text><text x="504.16666666667" style="color:#666666;cursor:default;font-size:11px;fill:#666666;" text-anchor="middle" transform="translate(0,0)" y="327" opacity="1"><tspan>500 stk.</tspan></text><text x="568.5416666666666" style="color:#666666;cursor:default;font-size:11px;fill:#666666;" text-anchor="middle" transform="translate(0,0)" y="327" opacity="1"><tspan>600 s…</tspan><title>600 stk.</title></text></g><g class="highcharts-axis-labels highcharts-yaxis-labels" data-z-index="7"><text x="60" style="color:#666666;cursor:default;font-size:11px;fill:#666666;" text-anchor="end" transform="translate(0,0)" y="313" opacity="1"><tspan>0 DKK.</tspan></text><text x="60" style="color:#666666;cursor:default;font-size:11px;fill:#666666;" text-anchor="end" transform="translate(0,0)" y="226" opacity="1"><tspan>200 DKK.</tspan></text><text x="60" style="color:#666666;cursor:default;font-size:11px;fill:#666666;" text-anchor="end" transform="translate(0,0)" y="139" opacity="1"><tspan>400 DKK.</tspan></text><text x="60" style="color:#666666;cursor:default;font-size:11px;fill:#666666;" text-anchor="end" transform="translate(0,0)" y="52" opacity="1"><tspan>600 DKK.</tspan></text></g><g class="highcharts-control-points" data-z-index="99" clip-path="url(#highcharts-uhmgfxm-518-)"></g></svg>